<mxfile host="app.diagrams.net" modified="2023-06-01T02:50:25.147Z" agent="Mozilla/5.0 (Windows NT 10.0; Win64; x64) AppleWebKit/537.36 (KHTML, like Gecko) Chrome/113.0.0.0 Safari/537.36" version="21.2.9" etag="FD_h8DB88mebJgL1AI5j" type="github">
  <diagram name="第 1 页" id="5hI7nDVe26Lt9nUhR6cd">
    <mxGraphModel>
      <root>
        <mxCell id="0" />
        <mxCell id="1" parent="0" />
      </root>
    </mxGraphModel>
  </diagram>
</mxfile>
